PathFileType	4	(x/y/z)	S08_P20_T05
DataRate	CameraRate	NumFrames	NumMarkers	Units	OrigDataRate	OrigDataStartFrame	OrigNumFrames
240	240	10	51	mm	240	292	388
Frame#	Time	Sternum			R.Acromium			L.Acromium			Top.Head			R.ASIS			L.ASIS			R.PSIS			L.PSIS			R.Great.Tro			L.Great.Tro			R.Iliac.Crest			L.Iliac.Crest			V.Sacral			R.Thigh.Upper.Post			R.Thigh.Lower.Ant			R.Thigh.Lower.Post			R.Thigh.Upper.Ant			R.Knee.Lat			R.Knee.Med			R.Shank.Upper.Post			R.Shank.Lower.Ant			R.Shank.Lower.Post			R.Shank.Upper.Ant			R.Ankle.Lat			R.Ankle.Med			R.Heel.Upper			R.Heel.Med			R.Heel.Lat			R.Toe.Lat			R.Toe.Med			R.Toe.Tip			L.Thigh.Upper.Post			L.Thigh.Lower.Ant			L.Thigh.Lower.Post			L.Thigh.Upper.Ant			L.Knee.Lat			L.Knee.Med			L.Shank.Upper.Post			L.Shank.Lower.Ant			L.Shank.Lower.Post			L.Shank.Upper.Ant			L.Ankle.Lat			L.Ankle.Med			L.Heel.Upper			L.Heel.Med			L.Heel.Lat			L.Toe.Lat			L.Toe.Med			L.Toe.Tip			Cervical.Spine			Back			
		X1	Y1	Z1	X2	Y2	Z2	X3	Y3	Z3	X4	Y4	Z4	X5	Y5	Z5	X6	Y6	Z6	X7	Y7	Z7	X8	Y8	Z8	X9	Y9	Z9	X10	Y10	Z10	X11	Y11	Z11	X12	Y12	Z12	X13	Y13	Z13	X14	Y14	Z14	X15	Y15	Z15	X16	Y16	Z16	X17	Y17	Z17	X18	Y18	Z18	X19	Y19	Z19	X20	Y20	Z20	X21	Y21	Z21	X22	Y22	Z22	X23	Y23	Z23	X24	Y24	Z24	X25	Y25	Z25	X26	Y26	Z26	X27	Y27	Z27	X28	Y28	Z28	X29	Y29	Z29	X30	Y30	Z30	X31	Y31	Z31	X32	Y32	Z32	X33	Y33	Z33	X34	Y34	Z34	X35	Y35	Z35	X36	Y36	Z36	X37	Y37	Z37	X38	Y38	Z38	X39	Y39	Z39	X40	Y40	Z40	X41	Y41	Z41	X42	Y42	Z42	X43	Y43	Z43	X44	Y44	Z44	X45	Y45	Z45	X46	Y46	Z46	X47	Y47	Z47	X48	Y48	Z48	X49	Y49	Z49	X50	Y50	Z50	X51	Y51	Z51	

292	1.2125	250.85	1239.4	293.07	136.19	1477.9	465.61	131.93	1506.7	130.47	154.42	1798.7	322.49	212.12	1028.3	399.35	221.64	1031.2	169.14	14.811	1052.3	318.91	22.737	1058.5	226.24	156.18	918.98	468	133.15	924.14	98.777	114.64	1094.2	444.31	130.8	1113.6	136.31	2.1458	1015.3	269.4	220.19	723.92	459.42	331.1	663.22	431.3	262.18	644.1	441.41	294.43	749.42	449.83	325.93	559.33	427.22	312.28	558.05	297.77	199.97	418.13	434.82	228.33	334.03	417.25	165.95	349.14	430.63	262.67	403.69	424.84	90.369	201.1	400.14	128.03	197.49	323.71	34.876	182.13	349.47	36.885	152.58	323.23	27.048	159.34	384.25	NaN	NaN	NaN	209.22	85.017	327.39	271.21	79.695	378.18	113.02	712.39	118.68	198.72	624.01	147.45	129.72	624.26	139.95	184.5	708.78	121.86	141.38	523.7	164.03	144.72	526.75	288.99	68.42	345.67	168.47	129.31	254.96	193.7	60.01	273.59	187.24	131.37	329.66	175.27	71.223	100.44	207.51	92.481	108.58	293.03	16.863	77.167	256.6	30.431	42.41	287.17	25.996	49.55	223.65	202.3	38.63	194.57	218.02	45.735	310.29	282.73	62.071	262.88	67.729	1535.4	291.18	17.377	1255.6	294.08
293	1.2167	255.99	1239.5	293.05	141.33	1478	465.57	137.44	1506.9	130.49	159.74	1798.8	322.66	217.14	1028.5	399.28	226.56	1031.1	169.05	19.783	1052.5	319.03	27.714	1058.6	226.36	161.57	919.43	468.18	137.78	924.05	98.974	119.72	1094.5	444.29	135.88	1113.5	136.31	7.1122	1015.4	269.54	226.33	724.54	459.48	337.32	664.26	430.83	268.52	644.88	441.26	300.37	750.28	449.51	332.53	560.32	426.77	318.14	558.99	297.66	209.58	416.01	434.78	239.91	332.71	417.17	177.31	346.24	430.56	272.56	403.13	424.64	105.18	196.38	400.34	142.88	193.72	323.83	50.122	175.79	349.71	52.964	146.26	323.49	42.945	152.81	384.49	NaN	NaN	NaN	227.16	83.576	327.66	289.32	80.058	378.41	116.32	712.76	118.55	201.2	623.72	147.6	132.26	624.43	139.98	187.61	708.63	121.99	143.1	523.71	164.09	146.39	526.73	289.09	69.412	345.91	168.55	129.98	254.99	193.79	60.714	273.81	187.42	132.28	329.67	175.36	71.44	100.59	207.68	92.793	108.66	293.2	16.953	77.274	256.68	30.565	42.444	287.23	26.054	49.666	223.71	202.34	38.589	194.6	218.07	45.52	310.31	282.81	61.801	262.89	73.035	1535.5	291.1	22.55	1255.8	293.84
294	1.2208	261.13	1239.5	293.04	146.49	1478	465.53	142.94	1507.1	130.52	165.05	1798.8	322.83	222.17	1028.6	399.21	231.48	1030.9	168.96	24.764	1052.6	319.16	32.694	1058.6	226.49	166.95	919.82	468.36	142.4	923.92	99.177	124.81	1094.6	444.27	140.95	1113.4	136.32	12.087	1015.4	269.7	232.36	725.08	459.5	343.39	665.16	430.35	274.71	645.56	441.07	306.22	751.02	449.18	338.96	561.19	426.34	323.81	559.79	297.58	219.17	413.8	434.75	251.49	331.36	417.1	188.68	343.26	430.49	282.39	402.51	424.44	120.13	191.65	400.5	157.86	189.97	323.92	65.568	169.48	349.9	69.247	140.01	323.69	59.042	146.31	384.67	NaN	NaN	NaN	245.14	82.214	327.88	307.43	80.476	378.6	119.62	713.11	118.42	203.68	623.43	147.76	134.79	624.6	140.02	190.71	708.46	122.12	144.83	523.71	164.16	148.08	526.7	289.19	70.405	346.17	168.62	130.64	255.02	193.89	61.423	274.03	187.59	133.19	329.68	175.45	71.662	100.75	207.85	93.157	108.74	293.38	17.048	77.382	256.76	30.683	42.477	287.28	26.111	49.783	223.78	202.38	38.549	194.64	218.12	45.297	310.33	282.89	61.529	262.91	78.349	1535.6	291.03	27.728	1255.9	293.62
295	1.225	266.28	1239.4	293.02	151.65	1478	465.5	148.45	1507.3	130.54	170.36	1798.8	323	227.23	1028.7	399.15	236.4	1030.6	168.88	29.756	1052.6	319.31	37.68	1058.6	226.64	172.34	920.16	468.55	147.02	923.77	99.385	129.93	1094.8	444.27	146.01	1113.3	136.34	17.072	1015.4	269.88	238.28	725.54	459.48	349.34	665.92	429.88	280.75	646.15	440.85	311.99	751.65	448.87	345.24	561.96	425.93	329.31	560.43	297.5	228.73	411.5	434.73	263.06	330	417.02	200.07	340.24	430.42	292.17	401.84	424.25	135.23	186.94	400.63	172.96	186.25	323.99	81.202	163.23	350.04	85.718	133.85	323.84	75.328	139.89	384.79	NaN	NaN	NaN	263.16	80.948	328.04	325.51	80.961	378.74	122.92	713.46	118.32	206.14	623.12	147.93	137.33	624.76	140.09	193.8	708.27	122.26	146.55	523.71	164.24	149.78	526.68	289.3	71.397	346.42	168.7	131.31	255.05	194	62.139	274.27	187.77	134.1	329.7	175.54	71.888	100.91	208.03	93.564	108.83	293.56	17.148	77.49	256.85	30.785	42.509	287.35	26.17	49.901	223.85	202.42	38.511	194.67	218.18	45.065	310.36	282.97	61.253	262.93	83.67	1535.7	290.96	32.912	1256.1	293.41
296	1.2292	271.45	1239.4	293	156.83	1477.9	465.48	153.96	1507.4	130.57	175.66	1798.7	323.16	232.3	1028.7	399.09	241.33	1030.3	168.8	34.761	1052.6	319.46	42.673	1058.5	226.8	177.72	920.45	468.74	151.63	923.59	99.593	135.06	1094.9	444.27	151.07	1113.1	136.37	22.068	1015.4	270.07	244.09	725.92	459.41	355.14	666.53	429.42	286.62	646.63	440.59	317.68	752.15	448.56	351.35	562.61	425.53	334.65	560.92	297.45	238.26	409.13	434.71	274.61	328.63	416.94	211.47	337.18	430.36	301.88	401.13	424.07	150.45	182.26	400.73	188.16	182.59	324.03	97.011	157.06	350.13	102.36	127.79	323.93	91.791	133.55	384.86	NaN	NaN	NaN	281.19	79.791	328.15	343.56	81.524	378.83	126.22	713.81	118.23	208.6	622.81	148.09	139.86	624.91	140.17	196.89	708.06	122.39	148.27	523.71	164.32	151.5	526.64	289.4	72.39	346.69	168.79	131.97	255.08	194.1	62.86	274.53	187.95	135	329.71	175.64	72.119	101.07	208.22	94.003	108.93	293.76	17.251	77.598	256.95	30.872	42.539	287.42	26.229	50.019	223.93	202.45	38.474	194.7	218.25	44.827	310.4	283.06	60.972	262.94	88.998	1535.7	290.92	38.102	1256.1	293.22
297	1.2333	276.63	1239.2	292.99	162.03	1477.8	465.47	159.46	1507.4	130.59	180.95	1798.6	323.32	237.39	1028.7	399.05	246.26	1030	168.72	39.781	1052.6	319.63	47.675	1058.4	226.97	183.1	920.69	468.94	156.25	923.38	99.799	140.2	1095	444.28	156.12	1112.8	136.41	27.079	1015.3	270.27	249.79	726.21	459.29	360.8	667	428.98	292.34	647.01	440.31	323.28	752.53	448.27	357.31	563.15	425.17	339.82	561.26	297.42	247.77	406.7	434.71	286.14	327.26	416.85	222.88	334.09	430.3	311.54	400.39	423.9	165.8	177.65	400.8	203.44	179.01	324.05	112.98	150.99	350.17	119.15	121.88	323.97	108.41	127.32	384.87	NaN	NaN	NaN	299.23	78.758	328.2	361.56	82.178	378.86	129.51	714.14	118.16	211.06	622.5	148.26	142.4	625.06	140.26	199.97	707.85	122.52	149.99	523.72	164.4	153.24	526.61	289.51	73.381	346.95	168.87	132.63	255.12	194.21	63.586	274.79	188.12	135.9	329.73	175.73	72.353	101.24	208.42	94.459	109.04	293.96	17.358	77.706	257.06	30.946	42.567	287.5	26.288	50.138	224.01	202.49	38.439	194.73	218.32	44.584	310.44	283.14	60.687	262.96	94.333	1535.6	290.88	43.297	1256.1	293.03
298	1.2375	281.82	1239	292.97	167.23	1477.6	465.47	164.97	1507.4	130.62	186.23	1798.4	323.48	242.49	1028.7	399.01	251.21	1029.7	168.65	44.818	1052.5	319.82	52.687	1058.2	227.15	188.48	920.88	469.14	160.87	923.15	100	145.35	1095	444.3	161.16	1112.6	136.45	32.104	1015.2	270.49	255.37	726.41	459.14	366.32	667.31	428.56	297.91	647.27	440.02	328.8	752.79	447.98	363.11	563.58	424.82	344.83	561.43	297.4	257.24	404.22	434.71	297.64	325.91	416.77	234.28	331.01	430.24	321.14	399.62	423.73	181.24	173.11	400.84	218.8	175.52	324.04	129.08	145.05	350.18	136.07	116.12	323.96	125.18	121.23	384.84	NaN	NaN	NaN	317.25	77.865	328.18	379.5	82.935	378.83	132.8	714.47	118.12	213.52	622.18	148.42	144.94	625.21	140.37	203.06	707.62	122.65	151.72	523.72	164.48	154.99	526.57	289.61	74.37	347.23	168.97	133.29	255.15	194.31	64.317	275.07	188.29	136.8	329.76	175.83	72.59	101.42	208.62	94.92	109.14	294.17	17.469	77.812	257.17	31.009	42.595	287.58	26.347	50.256	224.1	202.53	38.405	194.77	218.4	44.338	310.48	283.24	60.396	262.98	99.673	1535.5	290.85	48.498	1256.1	292.86
299	1.2417	287.01	1238.8	292.96	172.44	1477.4	465.47	170.47	1507.4	130.64	191.52	1798.2	323.64	247.62	1028.6	398.98	256.17	1029.3	168.59	49.871	1052.4	320.01	57.712	1058	227.34	193.84	921	469.35	165.5	922.9	100.2	150.51	1095	444.33	166.2	1112.3	136.51	37.147	1015	270.71	260.85	726.52	458.95	371.7	667.48	428.16	303.31	647.43	439.71	334.22	752.93	447.71	368.77	563.88	424.5	349.71	561.44	297.4	266.68	401.71	434.71	309.1	324.59	416.68	245.68	327.94	430.18	330.66	398.84	423.57	196.76	168.68	400.86	234.2	172.15	324	145.29	139.26	350.14	153.1	110.53	323.91	142.07	115.3	384.76	NaN	NaN	NaN	335.23	77.125	328.09	397.37	83.808	378.72	136.08	714.79	118.1	215.98	621.85	148.57	147.48	625.35	140.49	206.14	707.38	122.78	153.44	523.73	164.56	156.77	526.53	289.72	75.357	347.51	169.07	133.95	255.2	194.41	65.05	275.36	188.47	137.7	329.78	175.92	72.831	101.6	208.84	95.376	109.25	294.38	17.584	77.917	257.3	31.062	42.623	287.68	26.406	50.374	224.21	202.56	38.371	194.8	218.49	44.089	310.52	283.34	60.1	263	105.02	1535.4	290.84	53.705	1256	292.7
300	1.2458	292.22	1238.5	292.95	177.66	1477.1	465.48	175.97	1507.2	130.67	196.79	1798	323.8	252.76	1028.5	398.97	261.15	1028.9	168.53	54.944	1052.2	320.21	62.749	1057.8	227.54	199.2	921.07	469.55	170.14	922.63	100.39	155.68	1094.9	444.37	171.25	1112	136.57	42.209	1014.8	270.95	266.2	726.54	458.74	376.94	667.5	427.79	308.57	647.47	439.41	339.55	752.94	447.46	374.28	564.07	424.21	354.45	561.3	297.41	276.09	399.19	434.72	320.52	323.3	416.59	257.07	324.9	430.12	340.12	398.05	423.42	212.36	164.36	400.84	249.63	168.9	323.94	161.6	133.64	350.06	170.2	105.15	323.83	159.06	109.56	384.64	NaN	NaN	NaN	353.16	76.55	327.93	415.14	84.809	378.53	139.36	715.11	118.1	218.45	621.52	148.72	150.04	625.49	140.63	209.23	707.13	122.9	155.17	523.75	164.64	158.58	526.49	289.81	76.339	347.8	169.18	134.6	255.24	194.5	65.787	275.67	188.64	138.6	329.81	176.01	73.072	101.79	209.06	95.823	109.36	294.6	17.701	78.019	257.44	31.109	42.651	287.8	26.465	50.491	224.32	202.59	38.339	194.83	218.59	43.837	310.57	283.45	59.799	263.02	110.37	1535.3	290.85	58.918	1255.9	292.55
301	1.25	297.44	1238.2	292.93	182.89	1476.7	465.5	181.47	1507.1	130.71	202.07	1797.7	323.96	257.92	1028.4	398.96	266.15	1028.5	168.48	60.036	1052	320.42	67.8	1057.5	227.74	204.54	921.08	469.76	174.79	922.33	100.57	160.85	1094.8	444.42	176.29	1111.6	136.64	47.29	1014.6	271.19	271.45	726.46	458.5	382.05	667.37	427.46	313.67	647.41	439.11	344.8	752.84	447.22	379.66	564.14	423.94	359.07	561	297.43	285.47	396.67	434.73	331.88	322.06	416.48	268.43	321.91	430.06	349.5	397.26	423.27	228	160.18	400.8	265.07	165.8	323.84	177.98	128.19	349.95	187.36	99.971	323.71	176.12	104	384.5	NaN	NaN	NaN	371	76.151	327.68	432.79	85.95	378.26	142.65	715.42	118.12	220.94	621.19	148.85	152.6	625.64	140.77	212.33	706.87	123.02	156.91	523.76	164.72	160.41	526.45	289.91	77.317	348.09	169.3	135.25	255.29	194.59	66.528	275.98	188.82	139.49	329.85	176.09	73.315	101.98	209.29	96.257	109.47	294.82	17.821	78.119	257.59	31.149	42.681	287.93	26.523	50.607	224.44	202.62	38.308	194.86	218.7	43.585	310.61	283.56	59.493	263.04	115.72	1535.1	290.86	64.137	1255.7	292.42
